<?xml version="1.0" standalone="no"?>
<!DOCTYPE svg PUBLIC "-//W3C//DTD SVG 20010904//EN"
 "http://www.w3.org/TR/2001/REC-SVG-20010904/DTD/svg10.dtd">
<svg version="1.0" xmlns="http://www.w3.org/2000/svg"
 width="1024.000000pt" height="1024.000000pt" viewBox="0 0 1024.000000 1024.000000"
 preserveAspectRatio="xMidYMid meet">

<g transform="translate(0.000000,1024.000000) scale(0.100000,-0.100000)"
fill="#000000" stroke="none">
<path d="M3437 7114 c-4 -4 -7 -911 -7 -2016 l0 -2009 888 4 c949 4 938 4
1186 57 179 39 395 123 550 214 502 295 819 794 902 1416 19 150 20 468 0 620
-36 279 -113 521 -238 745 -292 523 -780 848 -1428 952 -91 14 -224 17 -975
20 -479 2 -874 1 -878 -3z m1623 -644 c288 -35 510 -134 712 -319 371 -341
503 -1015 312 -1590 -123 -370 -369 -629 -708 -745 -163 -56 -185 -58 -688
-63 l-468 -5 0 1366 0 1366 378 0 c208 0 416 -5 462 -10z"/>
</g>
</svg>
